<?xml version="1.0" encoding="UTF-8"?>
<svg id="Layer_3" data-name="Layer 3" xmlns="http://www.w3.org/2000/svg" xmlns:xlink="http://www.w3.org/1999/xlink" viewBox="0 0 750 310">
  <defs>
    <style>
      .cls-1 {
        fill: #34f5ff;
      }

      .cls-2 {
        fill: #770bd6;
      }

      .cls-3 {
        fill: #ba6cff;
      }

      .cls-4 {
        fill: none;
        stroke: #770bd6;
        stroke-linejoin: round;
        stroke-width: 30px;
      }

      .cls-5 {
        fill: url(#linear-gradient);
      }
    </style>
    <linearGradient id="linear-gradient" x1="160.51" y1="55.18" x2="160.51" y2="250.49" gradientUnits="userSpaceOnUse">
      <stop offset=".22" stop-color="#9914ff"/>
      <stop offset=".86" stop-color="#ba6cff"/>
    </linearGradient>
  </defs>
  <path class="cls-2" d="m194.58,302.07l-59.47-52.39c-3.73-3.29-8.85-4.53-13.67-3.32l-76.87,19.29c-12.15,3.05-22.53-9.16-17.56-20.66l31.45-72.75c1.97-4.57,1.58-9.81-1.07-14.03L15.29,91.05c-6.66-10.62,1.75-24.26,14.23-23.08l78.91,7.43c4.95.47,9.82-1.53,13.01-5.35l50.85-60.79c8.04-9.61,23.61-5.83,26.35,6.4l17.32,77.34c1.09,4.86,4.49,8.86,9.11,10.72l73.53,29.58c11.62,4.68,12.84,20.65,2.06,27.03l-68.2,40.37c-4.28,2.53-7.04,7.01-7.38,11.98l-5.41,79.07c-.86,12.5-15.67,18.59-25.08,10.31Z"/>
  <path class="cls-3" d="m189,277.97l-49.73-43.81c-3.12-2.75-7.4-3.79-11.43-2.78l-64.29,16.13c-10.16,2.55-18.84-7.66-14.68-17.28l26.3-60.84c1.65-3.82,1.32-8.21-.89-11.73l-35.21-56.16c-5.57-8.88,1.46-20.28,11.9-19.3l65.99,6.21c4.14.39,8.21-1.28,10.88-4.47l42.53-50.84c6.72-8.04,19.74-4.88,22.03,5.35l14.48,64.68c.91,4.06,3.76,7.41,7.62,8.97l61.49,24.74c9.72,3.91,10.74,17.27,1.72,22.61l-57.04,33.76c-3.58,2.12-5.89,5.87-6.17,10.02l-4.52,66.13c-.72,10.45-13.11,15.55-20.97,8.62Z"/>
  <path class="cls-5" d="m185.99,264.94l-44.47-39.18c-2.79-2.46-6.62-3.39-10.22-2.48l-57.49,14.42c-9.09,2.28-16.85-6.85-13.13-15.45l23.52-54.4c1.48-3.42,1.18-7.34-.8-10.49l-31.48-50.22c-4.98-7.94,1.31-18.14,10.64-17.26l59.01,5.56c3.7.35,7.34-1.15,9.73-4l38.03-45.46c6.01-7.19,17.66-4.36,19.7,4.78l12.95,57.84c.81,3.63,3.36,6.63,6.81,8.02l54.99,22.12c8.69,3.5,9.6,15.44,1.54,20.22l-51,30.19c-3.2,1.9-5.27,5.24-5.52,8.96l-4.05,59.13c-.64,9.35-11.72,13.9-18.75,7.71Z"/>
  <path class="cls-5" d="m185.99,264.94l-44.47-39.18c-2.79-2.46-6.62-3.39-10.22-2.48l-57.49,14.42c-9.09,2.28-16.85-6.85-13.13-15.45l23.52-54.4c1.48-3.42,1.18-7.34-.8-10.49l-31.48-50.22c-4.98-7.94,1.31-18.14,10.64-17.26l59.01,5.56c3.7.35,7.34-1.15,9.73-4l38.03-45.46c6.01-7.19,17.66-4.36,19.7,4.78l12.95,57.84c.81,3.63,3.36,6.63,6.81,8.02l54.99,22.12c8.69,3.5,9.6,15.44,1.54,20.22l-51,30.19c-3.2,1.9-5.27,5.24-5.52,8.96l-4.05,59.13c-.64,9.35-11.72,13.9-18.75,7.71Z"/>
  <g>
    <g>
      <path class="cls-1" d="m213.93,178.97h-43.13c-1.1,0-2.29-.13-3.56-.39-1.27-.26-2.53-.67-3.77-1.22-1.24-.55-2.43-1.26-3.56-2.14-1.13-.87-2.14-1.93-3.01-3.17-.87-1.24-1.57-2.68-2.09-4.32-.52-1.64-.78-3.49-.78-5.54v-32.37c0-1.1.13-2.29.39-3.56.26-1.27.67-2.53,1.22-3.77.55-1.24,1.27-2.43,2.16-3.56.89-1.13,1.95-2.14,3.2-3.01,1.24-.87,2.67-1.57,4.3-2.09,1.62-.52,3.46-.78,5.52-.78h43.13v11.95h-43.13c-1.56,0-2.76.41-3.59,1.24s-1.24,2.05-1.24,3.68v32.28c0,1.53.42,2.72,1.26,3.56.84.84,2.03,1.26,3.56,1.26h43.13v11.95Z"/>
      <path class="cls-1" d="m261.48,178.97h-21.56c-1.72,0-3.55-.29-5.49-.87-1.95-.58-3.76-1.54-5.45-2.87-1.69-1.33-3.08-3.06-4.18-5.2-1.1-2.13-1.66-4.74-1.66-7.84v-32.92h11.95v32.92c0,1.56.41,2.76,1.24,3.59s2.05,1.24,3.68,1.24h21.47v11.95Zm16.74,4.78c0,2.05-.26,3.9-.78,5.54-.52,1.64-1.21,3.08-2.07,4.32-.86,1.24-1.85,2.3-2.99,3.17-1.13.87-2.32,1.59-3.56,2.14-1.24.55-2.49.96-3.75,1.22-1.26.26-2.45.39-3.59.39h-21.56v-11.95h21.56c1.59,0,2.79-.41,3.59-1.24.8-.83,1.2-2.02,1.2-3.59v-54.48h11.95v54.48Z"/>
      <path class="cls-1" d="m344.42,162.19c0,1.13-.13,2.33-.39,3.59-.26,1.26-.67,2.51-1.22,3.75-.55,1.24-1.26,2.43-2.14,3.56-.87,1.13-1.93,2.14-3.17,3.01-1.24.87-2.67,1.57-4.3,2.09-1.62.52-3.46.78-5.52.78h-21.56c-1.13,0-2.33-.13-3.59-.39-1.26-.26-2.51-.67-3.75-1.22-1.24-.55-2.43-1.26-3.56-2.14-1.13-.87-2.14-1.93-3.01-3.17-.87-1.24-1.57-2.68-2.09-4.32-.52-1.64-.78-3.49-.78-5.54v-53.93h11.95v53.93c0,1.47.46,2.64,1.38,3.52.92.87,2.07,1.31,3.45,1.31h21.56c1.5,0,2.67-.44,3.52-1.33.84-.89,1.26-2.05,1.26-3.49v-16.18c0-1.5-.44-2.67-1.33-3.52-.89-.84-2.04-1.26-3.45-1.26h-21.56v-11.95h21.56c1.13,0,2.33.13,3.59.39,1.26.26,2.51.67,3.75,1.22,1.24.55,2.43,1.26,3.56,2.14,1.13.87,2.13,1.93,2.99,3.17.86,1.24,1.55,2.67,2.07,4.3.52,1.62.78,3.46.78,5.52v16.18Z"/>
      <path class="cls-1" d="m408.1,145.73c0,1.65-.29,3.44-.87,5.36-.58,1.92-1.53,3.69-2.83,5.33-1.3,1.64-3,3.01-5.1,4.11s-4.65,1.66-7.66,1.66h-21.56v-11.36h21.56c1.62,0,2.88-.5,3.77-1.49.89-1,1.33-2.23,1.33-3.7,0-1.56-.5-2.79-1.49-3.68-1-.89-2.2-1.33-3.61-1.33h-21.56c-1.63,0-2.88.5-3.77,1.49s-1.33,2.23-1.33,3.7v16.69c0,1.59.5,2.84,1.5,3.72.99.89,2.23,1.33,3.7,1.33h21.47v11.4h-21.56c-1.66,0-3.44-.29-5.36-.87-1.92-.58-3.69-1.52-5.33-2.83-1.64-1.3-3.01-3-4.12-5.1s-1.65-4.65-1.65-7.66v-16.78c0-1.66.29-3.44.87-5.36.58-1.92,1.53-3.69,2.83-5.33,1.3-1.64,3-3.01,5.1-4.11s4.65-1.66,7.66-1.66h21.56c1.66,0,3.44.29,5.36.87,1.91.58,3.69,1.53,5.33,2.83,1.64,1.3,3.01,3,4.11,5.1,1.1,2.1,1.66,4.65,1.66,7.66Z"/>
      <path class="cls-1" d="m459.64,141.22h-26.9c-1.62,0-2.85.41-3.68,1.22-.83.81-1.24,2-1.24,3.56v32.97h-11.95v-32.97c0-2.05.26-3.89.78-5.52.52-1.62,1.22-3.06,2.09-4.3.87-1.24,1.88-2.3,3.01-3.17,1.13-.87,2.32-1.59,3.56-2.14s2.5-.96,3.77-1.22c1.27-.26,2.46-.39,3.56-.39h26.99v11.95Z"/>
      <rect class="cls-1" x="278.42" y="108.26" width="11.92" height="11.92"/>
    </g>
    <g>
      <path class="cls-4" d="m213.93,178.97h-43.13c-1.1,0-2.29-.13-3.56-.39-1.27-.26-2.53-.67-3.77-1.22-1.24-.55-2.43-1.26-3.56-2.14-1.13-.87-2.14-1.93-3.01-3.17-.87-1.24-1.57-2.68-2.09-4.32-.52-1.64-.78-3.49-.78-5.54v-32.37c0-1.1.13-2.29.39-3.56.26-1.27.67-2.53,1.22-3.77.55-1.24,1.27-2.43,2.16-3.56.89-1.13,1.95-2.14,3.2-3.01,1.24-.87,2.67-1.57,4.3-2.09,1.62-.52,3.46-.78,5.52-.78h43.13v11.95h-43.13c-1.56,0-2.76.41-3.59,1.24s-1.24,2.05-1.24,3.68v32.28c0,1.53.42,2.72,1.26,3.56.84.84,2.03,1.26,3.56,1.26h43.13v11.95Z"/>
      <path class="cls-4" d="m261.48,178.97h-21.56c-1.72,0-3.55-.29-5.49-.87-1.95-.58-3.76-1.54-5.45-2.87-1.69-1.33-3.08-3.06-4.18-5.2-1.1-2.13-1.66-4.74-1.66-7.84v-32.92h11.95v32.92c0,1.56.41,2.76,1.24,3.59s2.05,1.24,3.68,1.24h21.47v11.95Zm16.74,4.78c0,2.05-.26,3.9-.78,5.54-.52,1.64-1.21,3.08-2.07,4.32-.86,1.24-1.85,2.3-2.99,3.17-1.13.87-2.32,1.59-3.56,2.14-1.24.55-2.49.96-3.75,1.22-1.26.26-2.45.39-3.59.39h-21.56v-11.95h21.56c1.59,0,2.79-.41,3.59-1.24.8-.83,1.2-2.02,1.2-3.59v-54.48h11.95v54.48Z"/>
      <path class="cls-4" d="m344.42,162.19c0,1.13-.13,2.33-.39,3.59-.26,1.26-.67,2.51-1.22,3.75-.55,1.24-1.26,2.43-2.14,3.56-.87,1.13-1.93,2.14-3.17,3.01-1.24.87-2.67,1.57-4.3,2.09-1.62.52-3.46.78-5.52.78h-21.56c-1.13,0-2.33-.13-3.59-.39-1.26-.26-2.51-.67-3.75-1.22-1.24-.55-2.43-1.26-3.56-2.14-1.13-.87-2.14-1.93-3.01-3.17-.87-1.24-1.57-2.68-2.09-4.32-.52-1.64-.78-3.49-.78-5.54v-53.93h11.95v53.93c0,1.47.46,2.64,1.38,3.52.92.87,2.07,1.31,3.45,1.31h21.56c1.5,0,2.67-.44,3.52-1.33.84-.89,1.26-2.05,1.26-3.49v-16.18c0-1.5-.44-2.67-1.33-3.52-.89-.84-2.04-1.26-3.45-1.26h-21.56v-11.95h21.56c1.13,0,2.33.13,3.59.39,1.26.26,2.51.67,3.75,1.22,1.24.55,2.43,1.26,3.56,2.14,1.13.87,2.13,1.93,2.99,3.17.86,1.24,1.55,2.67,2.07,4.3.52,1.62.78,3.46.78,5.52v16.18Z"/>
      <path class="cls-4" d="m408.1,145.73c0,1.65-.29,3.44-.87,5.36-.58,1.92-1.53,3.69-2.83,5.33-1.3,1.64-3,3.01-5.1,4.11s-4.65,1.66-7.66,1.66h-21.56v-11.36h21.56c1.62,0,2.88-.5,3.77-1.49.89-1,1.33-2.23,1.33-3.7,0-1.56-.5-2.79-1.49-3.68-1-.89-2.2-1.33-3.61-1.33h-21.56c-1.63,0-2.88.5-3.77,1.49s-1.33,2.23-1.33,3.7v16.69c0,1.59.5,2.84,1.5,3.72.99.89,2.23,1.33,3.7,1.33h21.47v11.4h-21.56c-1.66,0-3.44-.29-5.36-.87-1.92-.58-3.69-1.52-5.33-2.83-1.64-1.3-3.01-3-4.12-5.1s-1.65-4.65-1.65-7.66v-16.78c0-1.66.29-3.44.87-5.36.58-1.92,1.53-3.69,2.83-5.33,1.3-1.64,3-3.01,5.1-4.11s4.65-1.66,7.66-1.66h21.56c1.66,0,3.44.29,5.36.87,1.91.58,3.69,1.53,5.33,2.83,1.64,1.3,3.01,3,4.11,5.1,1.1,2.1,1.66,4.65,1.66,7.66Z"/>
      <path class="cls-4" d="m459.64,141.22h-26.9c-1.62,0-2.85.41-3.68,1.22-.83.81-1.24,2-1.24,3.56v32.97h-11.95v-32.97c0-2.05.26-3.89.78-5.52.52-1.62,1.22-3.06,2.09-4.3.87-1.24,1.88-2.3,3.01-3.17,1.13-.87,2.32-1.59,3.56-2.14s2.5-.96,3.77-1.22c1.27-.26,2.46-.39,3.56-.39h26.99v11.95Z"/>
      <rect class="cls-4" x="278.42" y="108.26" width="11.92" height="11.92"/>
    </g>
    <g>
      <path class="cls-1" d="m213.93,178.97h-43.13c-1.1,0-2.29-.13-3.56-.39-1.27-.26-2.53-.67-3.77-1.22-1.24-.55-2.43-1.26-3.56-2.14-1.13-.87-2.14-1.93-3.01-3.17-.87-1.24-1.57-2.68-2.09-4.32-.52-1.64-.78-3.49-.78-5.54v-32.37c0-1.1.13-2.29.39-3.56.26-1.27.67-2.53,1.22-3.77.55-1.24,1.27-2.43,2.16-3.56.89-1.13,1.95-2.14,3.2-3.01,1.24-.87,2.67-1.57,4.3-2.09,1.62-.52,3.46-.78,5.52-.78h43.13v11.95h-43.13c-1.56,0-2.76.41-3.59,1.24s-1.24,2.05-1.24,3.68v32.28c0,1.53.42,2.72,1.26,3.56.84.84,2.03,1.26,3.56,1.26h43.13v11.95Z"/>
      <path class="cls-1" d="m261.48,178.97h-21.56c-1.72,0-3.55-.29-5.49-.87-1.95-.58-3.76-1.54-5.45-2.87-1.69-1.33-3.08-3.06-4.18-5.2-1.1-2.13-1.66-4.74-1.66-7.84v-32.92h11.95v32.92c0,1.56.41,2.76,1.24,3.59s2.05,1.24,3.68,1.24h21.47v11.95Zm16.74,4.78c0,2.05-.26,3.9-.78,5.54-.52,1.64-1.21,3.08-2.07,4.32-.86,1.24-1.85,2.3-2.99,3.17-1.13.87-2.32,1.59-3.56,2.14-1.24.55-2.49.96-3.75,1.22-1.26.26-2.45.39-3.59.39h-21.56v-11.95h21.56c1.59,0,2.79-.41,3.59-1.24.8-.83,1.2-2.02,1.2-3.59v-54.48h11.95v54.48Z"/>
      <path class="cls-1" d="m344.42,162.19c0,1.13-.13,2.33-.39,3.59-.26,1.26-.67,2.51-1.22,3.75-.55,1.24-1.26,2.43-2.14,3.56-.87,1.13-1.93,2.14-3.17,3.01-1.24.87-2.67,1.57-4.3,2.09-1.62.52-3.46.78-5.52.78h-21.56c-1.13,0-2.33-.13-3.59-.39-1.26-.26-2.51-.67-3.75-1.22-1.24-.55-2.43-1.26-3.56-2.14-1.13-.87-2.14-1.93-3.01-3.17-.87-1.24-1.57-2.68-2.09-4.32-.52-1.64-.78-3.49-.78-5.54v-53.93h11.95v53.93c0,1.47.46,2.64,1.38,3.52.92.87,2.07,1.31,3.45,1.31h21.56c1.5,0,2.67-.44,3.52-1.33.84-.89,1.26-2.05,1.26-3.49v-16.18c0-1.5-.44-2.67-1.33-3.52-.89-.84-2.04-1.26-3.45-1.26h-21.56v-11.95h21.56c1.13,0,2.33.13,3.59.39,1.26.26,2.51.67,3.75,1.22,1.24.55,2.43,1.26,3.56,2.14,1.13.87,2.13,1.93,2.99,3.17.86,1.24,1.55,2.67,2.07,4.3.52,1.62.78,3.46.78,5.52v16.18Z"/>
      <path class="cls-1" d="m408.1,145.73c0,1.65-.29,3.44-.87,5.36-.58,1.92-1.53,3.69-2.83,5.33-1.3,1.64-3,3.01-5.1,4.11s-4.65,1.66-7.66,1.66h-21.56v-11.36h21.56c1.62,0,2.88-.5,3.77-1.49.89-1,1.33-2.23,1.33-3.7,0-1.56-.5-2.79-1.49-3.68-1-.89-2.2-1.33-3.61-1.33h-21.56c-1.63,0-2.88.5-3.77,1.49s-1.33,2.23-1.33,3.7v16.69c0,1.59.5,2.84,1.5,3.72.99.89,2.23,1.33,3.7,1.33h21.47v11.4h-21.56c-1.66,0-3.44-.29-5.36-.87-1.92-.58-3.69-1.52-5.33-2.83-1.64-1.3-3.01-3-4.12-5.1s-1.65-4.65-1.65-7.66v-16.78c0-1.66.29-3.44.87-5.36.58-1.92,1.53-3.69,2.83-5.33,1.3-1.64,3-3.01,5.1-4.11s4.65-1.66,7.66-1.66h21.56c1.66,0,3.44.29,5.36.87,1.91.58,3.69,1.53,5.33,2.83,1.64,1.3,3.01,3,4.11,5.1,1.1,2.1,1.66,4.65,1.66,7.66Z"/>
      <path class="cls-1" d="m459.64,141.22h-26.9c-1.62,0-2.85.41-3.68,1.22-.83.81-1.24,2-1.24,3.56v32.97h-11.95v-32.97c0-2.05.26-3.89.78-5.52.52-1.62,1.22-3.06,2.09-4.3.87-1.24,1.88-2.3,3.01-3.17,1.13-.87,2.32-1.59,3.56-2.14s2.5-.96,3.77-1.22c1.27-.26,2.46-.39,3.56-.39h26.99v11.95Z"/>
      <rect class="cls-1" x="278.42" y="108.26" width="11.92" height="11.92"/>
    </g>
  </g>
  <g>
    <g>
      <path d="m533.9,159.57c0,2.36-.3,4.48-.9,6.37s-1.39,3.55-2.37,4.99c-.98,1.44-2.13,2.67-3.45,3.68-1.32,1.01-2.68,1.84-4.09,2.48-1.41.64-2.84,1.12-4.3,1.43-1.46.31-2.83.46-4.12.46h-46.12v-11.96h46.12c2.3,0,4.08-.67,5.36-2.02,1.27-1.35,1.91-3.16,1.91-5.43,0-1.1-.17-2.12-.51-3.03-.34-.92-.82-1.72-1.45-2.39-.63-.67-1.39-1.2-2.3-1.56-.9-.37-1.91-.55-3.01-.55h-27.49c-1.93,0-4.02-.34-6.25-1.04-2.24-.69-4.31-1.8-6.23-3.33-1.92-1.53-3.51-3.54-4.78-6.02-1.27-2.48-1.91-5.52-1.91-9.1s.64-6.61,1.91-9.08c1.27-2.47,2.87-4.47,4.78-6.02,1.92-1.55,3.99-2.67,6.23-3.36,2.24-.69,4.32-1.04,6.25-1.04h40.69v11.96h-40.69c-2.27,0-4.04.69-5.31,2.07-1.27,1.38-1.91,3.2-1.91,5.47s.63,4.12,1.91,5.45c1.27,1.33,3.04,2,5.31,2h27.59c1.29.03,2.65.21,4.09.53,1.44.32,2.87.82,4.3,1.49,1.42.67,2.78,1.53,4.07,2.55,1.29,1.03,2.43,2.26,3.43,3.7,1,1.44,1.79,3.1,2.37,4.97.58,1.87.87,3.99.87,6.34Z"/>
      <path d="m596.57,162.19c0,2.05-.26,3.9-.78,5.54-.52,1.64-1.21,3.08-2.07,4.32-.86,1.24-1.85,2.3-2.99,3.17-1.13.87-2.32,1.59-3.56,2.14s-2.5.96-3.77,1.22-2.47.39-3.61.39h-21.56c-1.66,0-3.46-.29-5.42-.87-1.96-.58-3.78-1.54-5.45-2.87-1.67-1.33-3.07-3.07-4.18-5.2-1.12-2.13-1.68-4.74-1.68-7.84v-16.18c0-3.06.56-5.66,1.68-7.79,1.12-2.13,2.51-3.86,4.18-5.2,1.67-1.33,3.49-2.29,5.45-2.87,1.96-.58,3.77-.87,5.42-.87h21.56c3.07,0,5.67.55,7.82,1.66s3.88,2.49,5.2,4.16c1.32,1.67,2.28,3.49,2.88,5.45.6,1.96.9,3.79.9,5.47v16.18Zm-11.96-16.09c0-1.66-.41-2.88-1.24-3.68s-2.02-1.2-3.59-1.2h-21.47c-1.59,0-2.8.41-3.63,1.22-.83.81-1.24,2-1.24,3.56v16.18c0,1.56.41,2.76,1.24,3.59.83.83,2.04,1.24,3.63,1.24h21.47c1.62,0,2.84-.41,3.63-1.24.8-.83,1.2-2.02,1.2-3.59v-16.09Z"/>
      <path d="m661.81,178.97h-11.95v-27.59c0-1.56-.27-2.97-.8-4.21-.54-1.24-1.27-2.31-2.18-3.2-.92-.89-2-1.57-3.24-2.05-1.24-.47-2.58-.71-4.02-.71h-20.92v37.75h-11.96v-43.77c0-.83.15-1.6.46-2.32.3-.72.73-1.35,1.29-1.88.55-.54,1.2-.96,1.93-1.26.74-.31,1.52-.46,2.34-.46h26.94c1.5,0,3.09.17,4.76.51,1.67.34,3.33.88,4.97,1.63,1.64.75,3.2,1.7,4.69,2.85s2.8,2.54,3.96,4.18c1.15,1.64,2.06,3.53,2.74,5.68.67,2.15,1.01,4.57,1.01,7.26v27.59Z"/>
      <path d="m726.36,183.75c0,2.05-.26,3.9-.78,5.54-.52,1.64-1.21,3.08-2.07,4.32-.86,1.24-1.85,2.3-2.99,3.17s-2.32,1.59-3.56,2.14c-1.24.55-2.5.96-3.77,1.22-1.27.26-2.47.39-3.61.39h-21.56v-11.95h21.56c1.62,0,2.84-.41,3.63-1.24.8-.83,1.2-2.02,1.2-3.59v-37.75c0-1.56-.4-2.75-1.2-3.56-.8-.81-2.01-1.22-3.63-1.22h-21.56c-1.47,0-2.64.45-3.49,1.36-.86.91-1.29,2.05-1.29,3.43v16.18c0,1.56.41,2.76,1.24,3.59.83.83,2.04,1.24,3.63,1.24h21.47v11.96h-21.56c-1.13,0-2.33-.13-3.59-.39-1.26-.26-2.51-.67-3.75-1.22-1.24-.55-2.43-1.26-3.56-2.14-1.13-.87-2.13-1.93-2.99-3.17-.86-1.24-1.55-2.68-2.07-4.32-.52-1.64-.78-3.49-.78-5.54v-16.18c0-1.13.13-2.33.39-3.59.26-1.26.67-2.51,1.22-3.75.55-1.24,1.26-2.43,2.14-3.56.88-1.13,1.93-2.13,3.17-2.99,1.24-.86,2.67-1.55,4.3-2.07s3.46-.78,5.52-.78h21.56c1.13,0,2.34.13,3.61.39,1.27.26,2.53.67,3.77,1.22,1.24.55,2.43,1.26,3.56,2.14,1.13.87,2.13,1.93,2.99,3.17.86,1.24,1.55,2.67,2.07,4.3.52,1.62.78,3.46.78,5.52v37.75Z"/>
    </g>
    <g>
      <path class="cls-4" d="m533.9,159.57c0,2.36-.3,4.48-.9,6.37s-1.39,3.55-2.37,4.99c-.98,1.44-2.13,2.67-3.45,3.68-1.32,1.01-2.68,1.84-4.09,2.48-1.41.64-2.84,1.12-4.3,1.43-1.46.31-2.83.46-4.12.46h-46.12v-11.96h46.12c2.3,0,4.08-.67,5.36-2.02,1.27-1.35,1.91-3.16,1.91-5.43,0-1.1-.17-2.12-.51-3.03-.34-.92-.82-1.72-1.45-2.39-.63-.67-1.39-1.2-2.3-1.56-.9-.37-1.91-.55-3.01-.55h-27.49c-1.93,0-4.02-.34-6.25-1.04-2.24-.69-4.31-1.8-6.23-3.33-1.92-1.53-3.51-3.54-4.78-6.02-1.27-2.48-1.91-5.52-1.91-9.1s.64-6.61,1.91-9.08c1.27-2.47,2.87-4.47,4.78-6.02,1.92-1.55,3.99-2.67,6.23-3.36,2.24-.69,4.32-1.04,6.25-1.04h40.69v11.96h-40.69c-2.27,0-4.04.69-5.31,2.07-1.27,1.38-1.91,3.2-1.91,5.47s.63,4.12,1.91,5.45c1.27,1.33,3.04,2,5.31,2h27.59c1.29.03,2.65.21,4.09.53,1.44.32,2.87.82,4.3,1.49,1.42.67,2.78,1.53,4.07,2.55,1.29,1.03,2.43,2.26,3.43,3.7,1,1.44,1.79,3.1,2.37,4.97.58,1.87.87,3.99.87,6.34Z"/>
      <path class="cls-4" d="m596.57,162.19c0,2.05-.26,3.9-.78,5.54-.52,1.64-1.21,3.08-2.07,4.32-.86,1.24-1.85,2.3-2.99,3.17-1.13.87-2.32,1.59-3.56,2.14s-2.5.96-3.77,1.22-2.47.39-3.61.39h-21.56c-1.66,0-3.46-.29-5.42-.87-1.96-.58-3.78-1.54-5.45-2.87-1.67-1.33-3.07-3.07-4.18-5.2-1.12-2.13-1.68-4.74-1.68-7.84v-16.18c0-3.06.56-5.66,1.68-7.79,1.12-2.13,2.51-3.86,4.18-5.2,1.67-1.33,3.49-2.29,5.45-2.87,1.96-.58,3.77-.87,5.42-.87h21.56c3.07,0,5.67.55,7.82,1.66s3.88,2.49,5.2,4.16c1.32,1.67,2.28,3.49,2.88,5.45.6,1.96.9,3.79.9,5.47v16.18Zm-11.96-16.09c0-1.66-.41-2.88-1.24-3.68s-2.02-1.2-3.59-1.2h-21.47c-1.59,0-2.8.41-3.63,1.22-.83.81-1.24,2-1.24,3.56v16.18c0,1.56.41,2.76,1.24,3.59.83.83,2.04,1.24,3.63,1.24h21.47c1.62,0,2.84-.41,3.63-1.24.8-.83,1.2-2.02,1.2-3.59v-16.09Z"/>
      <path class="cls-4" d="m661.81,178.97h-11.95v-27.59c0-1.56-.27-2.97-.8-4.21-.54-1.24-1.27-2.31-2.18-3.2-.92-.89-2-1.57-3.24-2.05-1.24-.47-2.58-.71-4.02-.71h-20.92v37.75h-11.96v-43.77c0-.83.15-1.6.46-2.32.3-.72.73-1.35,1.29-1.88.55-.54,1.2-.96,1.93-1.26.74-.31,1.52-.46,2.34-.46h26.94c1.5,0,3.09.17,4.76.51,1.67.34,3.33.88,4.97,1.63,1.64.75,3.2,1.7,4.69,2.85s2.8,2.54,3.96,4.18c1.15,1.64,2.06,3.53,2.74,5.68.67,2.15,1.01,4.57,1.01,7.26v27.59Z"/>
      <path class="cls-4" d="m726.36,183.75c0,2.05-.26,3.9-.78,5.54-.52,1.64-1.21,3.08-2.07,4.32-.86,1.24-1.85,2.3-2.99,3.17s-2.32,1.59-3.56,2.14c-1.24.55-2.5.96-3.77,1.22-1.27.26-2.47.39-3.61.39h-21.56v-11.95h21.56c1.62,0,2.84-.41,3.63-1.24.8-.83,1.2-2.02,1.2-3.59v-37.75c0-1.56-.4-2.75-1.2-3.56-.8-.81-2.01-1.22-3.63-1.22h-21.56c-1.47,0-2.64.45-3.49,1.36-.86.91-1.29,2.05-1.29,3.43v16.18c0,1.56.41,2.76,1.24,3.59.83.83,2.04,1.24,3.63,1.24h21.47v11.96h-21.56c-1.13,0-2.33-.13-3.59-.39-1.26-.26-2.51-.67-3.75-1.22-1.24-.55-2.43-1.26-3.56-2.14-1.13-.87-2.13-1.93-2.99-3.17-.86-1.24-1.55-2.68-2.07-4.32-.52-1.64-.78-3.49-.78-5.54v-16.18c0-1.13.13-2.33.39-3.59.26-1.26.67-2.51,1.22-3.75.55-1.24,1.26-2.43,2.14-3.56.88-1.13,1.93-2.13,3.17-2.99,1.24-.86,2.67-1.55,4.3-2.07s3.46-.78,5.52-.78h21.56c1.13,0,2.34.13,3.61.39,1.27.26,2.53.67,3.77,1.22,1.24.55,2.43,1.26,3.56,2.14,1.13.87,2.13,1.93,2.99,3.17.86,1.24,1.55,2.67,2.07,4.3.52,1.62.78,3.46.78,5.52v37.75Z"/>
    </g>
    <g>
      <path class="cls-3" d="m533.9,159.57c0,2.36-.3,4.48-.9,6.37s-1.39,3.55-2.37,4.99c-.98,1.44-2.13,2.67-3.45,3.68-1.32,1.01-2.68,1.84-4.09,2.48-1.41.64-2.84,1.12-4.3,1.43-1.46.31-2.83.46-4.12.46h-46.12v-11.96h46.12c2.3,0,4.08-.67,5.36-2.02,1.27-1.35,1.91-3.16,1.91-5.43,0-1.1-.17-2.12-.51-3.03-.34-.92-.82-1.72-1.45-2.39-.63-.67-1.39-1.2-2.3-1.56-.9-.37-1.91-.55-3.01-.55h-27.49c-1.93,0-4.02-.34-6.25-1.04-2.24-.69-4.31-1.8-6.23-3.33-1.92-1.53-3.51-3.54-4.78-6.02-1.27-2.48-1.91-5.52-1.91-9.1s.64-6.61,1.91-9.08c1.27-2.47,2.87-4.47,4.78-6.02,1.92-1.55,3.99-2.67,6.23-3.36,2.24-.69,4.32-1.04,6.25-1.04h40.69v11.96h-40.69c-2.27,0-4.04.69-5.31,2.07-1.27,1.38-1.91,3.2-1.91,5.47s.63,4.12,1.91,5.45c1.27,1.33,3.04,2,5.31,2h27.59c1.29.03,2.65.21,4.09.53,1.44.32,2.87.82,4.3,1.49,1.42.67,2.78,1.53,4.07,2.55,1.29,1.03,2.43,2.26,3.43,3.7,1,1.44,1.79,3.1,2.37,4.97.58,1.87.87,3.99.87,6.34Z"/>
      <path class="cls-3" d="m596.57,162.19c0,2.05-.26,3.9-.78,5.54-.52,1.64-1.21,3.08-2.07,4.32-.86,1.24-1.85,2.3-2.99,3.17-1.13.87-2.32,1.59-3.56,2.14s-2.5.96-3.77,1.22-2.47.39-3.61.39h-21.56c-1.66,0-3.46-.29-5.42-.87-1.96-.58-3.78-1.54-5.45-2.87-1.67-1.33-3.07-3.07-4.18-5.2-1.12-2.13-1.68-4.74-1.68-7.84v-16.18c0-3.06.56-5.66,1.68-7.79,1.12-2.13,2.51-3.86,4.18-5.2,1.67-1.33,3.49-2.29,5.45-2.87,1.96-.58,3.77-.87,5.42-.87h21.56c3.07,0,5.67.55,7.82,1.66s3.88,2.49,5.2,4.16c1.32,1.67,2.28,3.49,2.88,5.45.6,1.96.9,3.79.9,5.47v16.18Zm-11.96-16.09c0-1.66-.41-2.88-1.24-3.68s-2.02-1.2-3.59-1.2h-21.47c-1.59,0-2.8.41-3.63,1.22-.83.81-1.24,2-1.24,3.56v16.18c0,1.56.41,2.76,1.24,3.59.83.83,2.04,1.24,3.63,1.24h21.47c1.62,0,2.84-.41,3.63-1.24.8-.83,1.2-2.02,1.2-3.59v-16.09Z"/>
      <path class="cls-3" d="m661.81,178.97h-11.95v-27.59c0-1.56-.27-2.97-.8-4.21-.54-1.24-1.27-2.31-2.18-3.2-.92-.89-2-1.57-3.24-2.05-1.24-.47-2.58-.71-4.02-.71h-20.92v37.75h-11.96v-43.77c0-.83.15-1.6.46-2.32.3-.72.73-1.35,1.29-1.88.55-.54,1.2-.96,1.93-1.26.74-.31,1.52-.46,2.34-.46h26.94c1.5,0,3.09.17,4.76.51,1.67.34,3.33.88,4.97,1.63,1.64.75,3.2,1.7,4.69,2.85s2.8,2.54,3.96,4.18c1.15,1.64,2.06,3.53,2.74,5.68.67,2.15,1.01,4.57,1.01,7.26v27.59Z"/>
      <path class="cls-3" d="m726.36,183.75c0,2.05-.26,3.9-.78,5.54-.52,1.64-1.21,3.08-2.07,4.32-.86,1.24-1.85,2.3-2.99,3.17s-2.32,1.59-3.56,2.14c-1.24.55-2.5.96-3.77,1.22-1.27.26-2.47.39-3.61.39h-21.56v-11.95h21.56c1.62,0,2.84-.41,3.63-1.24.8-.83,1.2-2.02,1.2-3.59v-37.75c0-1.56-.4-2.75-1.2-3.56-.8-.81-2.01-1.22-3.63-1.22h-21.56c-1.47,0-2.64.45-3.49,1.36-.86.91-1.29,2.05-1.29,3.43v16.18c0,1.56.41,2.76,1.24,3.59.83.83,2.04,1.24,3.63,1.24h21.47v11.96h-21.56c-1.13,0-2.33-.13-3.59-.39-1.26-.26-2.51-.67-3.75-1.22-1.24-.55-2.43-1.26-3.56-2.14-1.13-.87-2.13-1.93-2.99-3.17-.86-1.24-1.55-2.68-2.07-4.32-.52-1.64-.78-3.49-.78-5.54v-16.18c0-1.13.13-2.33.39-3.59.26-1.26.67-2.51,1.22-3.75.55-1.24,1.26-2.43,2.14-3.56.88-1.13,1.93-2.13,3.17-2.99,1.24-.86,2.67-1.55,4.3-2.07s3.46-.78,5.52-.78h21.56c1.13,0,2.34.13,3.61.39,1.27.26,2.53.67,3.77,1.22,1.24.55,2.43,1.26,3.56,2.14,1.13.87,2.13,1.93,2.99,3.17.86,1.24,1.55,2.67,2.07,4.3.52,1.62.78,3.46.78,5.52v37.75Z"/>
    </g>
  </g>
</svg>