<?xml version="1.0" encoding="UTF-8"?>
<svg id="Layer_2" data-name="Layer 2" xmlns="http://www.w3.org/2000/svg" xmlns:xlink="http://www.w3.org/1999/xlink" viewBox="0 0 295.12 302.03">
  <defs>
    <style>
      .cls-1 {
        fill: #34f5ff;
      }

      .cls-2 {
        fill: #770bd6;
      }

      .cls-3 {
        fill: #ba6cff;
      }

      .cls-4 {
        fill: none;
        stroke: #770bd6;
        stroke-linejoin: round;
        stroke-width: 30px;
      }

      .cls-5 {
        fill: url(#linear-gradient);
      }
    </style>
    <linearGradient id="linear-gradient" x1="147.56" y1="51.34" x2="147.56" y2="246.66" gradientUnits="userSpaceOnUse">
      <stop offset=".22" stop-color="#9914ff"/>
      <stop offset=".86" stop-color="#ba6cff"/>
    </linearGradient>
  </defs>
  <g id="Layer_3" data-name="Layer 3">
    <path class="cls-2" d="m181.63,298.23l-59.47-52.39c-3.73-3.29-8.85-4.53-13.67-3.32l-76.87,19.29c-12.15,3.05-22.53-9.16-17.56-20.66l31.45-72.75c1.97-4.57,1.58-9.81-1.07-14.03L2.34,87.22c-6.66-10.62,1.75-24.26,14.23-23.08l78.91,7.43c4.95.47,9.82-1.53,13.01-5.35L159.34,5.43c8.04-9.61,23.61-5.83,26.35,6.4l17.32,77.34c1.09,4.86,4.49,8.86,9.11,10.72l73.53,29.58c11.62,4.68,12.84,20.65,2.06,27.03l-68.2,40.37c-4.28,2.53-7.04,7.01-7.38,11.98l-5.41,79.07c-.86,12.5-15.67,18.59-25.08,10.31Z"/>
    <path class="cls-3" d="m176.05,274.13l-49.73-43.81c-3.12-2.75-7.4-3.79-11.43-2.78l-64.29,16.13c-10.16,2.55-18.84-7.66-14.68-17.28l26.3-60.84c1.65-3.82,1.32-8.21-.89-11.73l-35.21-56.16c-5.57-8.88,1.46-20.28,11.9-19.3l65.99,6.21c4.14.39,8.21-1.28,10.88-4.47l42.53-50.84c6.72-8.04,19.74-4.88,22.03,5.35l14.48,64.68c.91,4.06,3.76,7.41,7.62,8.97l61.49,24.74c9.72,3.91,10.74,17.27,1.72,22.61l-57.04,33.76c-3.58,2.12-5.89,5.87-6.17,10.02l-4.52,66.13c-.72,10.45-13.11,15.55-20.97,8.62Z"/>
    <path class="cls-5" d="m173.04,261.11l-44.47-39.18c-2.79-2.46-6.62-3.39-10.22-2.48l-57.49,14.42c-9.09,2.28-16.85-6.85-13.13-15.45l23.52-54.4c1.48-3.42,1.18-7.34-.8-10.49l-31.48-50.22c-4.98-7.94,1.31-18.14,10.64-17.26l59.01,5.56c3.7.35,7.34-1.15,9.73-4l38.03-45.46c6.01-7.19,17.66-4.36,19.7,4.78l12.95,57.84c.81,3.63,3.36,6.63,6.81,8.02l54.99,22.12c8.69,3.5,9.6,15.44,1.54,20.22l-51,30.19c-3.2,1.9-5.27,5.24-5.52,8.96l-4.05,59.13c-.64,9.35-11.72,13.9-18.75,7.71Z"/>
    <g>
      <g>
        <path class="cls-1" d="m171.06,172.59c0,1.13-.13,2.33-.39,3.59-.26,1.26-.67,2.51-1.22,3.75-.55,1.24-1.26,2.43-2.14,3.56-.87,1.13-1.93,2.14-3.17,3.01-1.24.87-2.67,1.57-4.3,2.09-1.62.52-3.46.78-5.52.78h-21.56c-1.13,0-2.33-.13-3.59-.39-1.26-.26-2.51-.67-3.75-1.22-1.24-.55-2.43-1.26-3.56-2.14-1.13-.87-2.14-1.93-3.01-3.17-.87-1.24-1.57-2.68-2.09-4.32-.52-1.64-.78-3.49-.78-5.54v-53.93h11.95v53.93c0,1.47.46,2.64,1.38,3.52.92.87,2.07,1.31,3.45,1.31h21.56c1.5,0,2.67-.44,3.52-1.33.84-.89,1.26-2.05,1.26-3.49v-16.18c0-1.5-.44-2.67-1.33-3.52-.89-.84-2.04-1.26-3.45-1.26h-21.56v-11.95h21.56c1.13,0,2.33.13,3.59.39,1.26.26,2.51.67,3.75,1.22,1.24.55,2.43,1.26,3.56,2.14,1.13.87,2.13,1.93,2.99,3.17.86,1.24,1.55,2.67,2.07,4.3.52,1.62.78,3.46.78,5.52v16.18Z"/>
        <rect class="cls-1" x="105.06" y="118.66" width="11.92" height="11.92"/>
      </g>
      <g>
        <path class="cls-4" d="m171.06,172.59c0,1.13-.13,2.33-.39,3.59-.26,1.26-.67,2.51-1.22,3.75-.55,1.24-1.26,2.43-2.14,3.56-.87,1.13-1.93,2.14-3.17,3.01-1.24.87-2.67,1.57-4.3,2.09-1.62.52-3.46.78-5.52.78h-21.56c-1.13,0-2.33-.13-3.59-.39-1.26-.26-2.51-.67-3.75-1.22-1.24-.55-2.43-1.26-3.56-2.14-1.13-.87-2.14-1.93-3.01-3.17-.87-1.24-1.57-2.68-2.09-4.32-.52-1.64-.78-3.49-.78-5.54v-53.93h11.95v53.93c0,1.47.46,2.64,1.38,3.52.92.87,2.07,1.31,3.45,1.31h21.56c1.5,0,2.67-.44,3.52-1.33.84-.89,1.26-2.05,1.26-3.49v-16.18c0-1.5-.44-2.67-1.33-3.52-.89-.84-2.04-1.26-3.45-1.26h-21.56v-11.95h21.56c1.13,0,2.33.13,3.59.39,1.26.26,2.51.67,3.75,1.22,1.24.55,2.43,1.26,3.56,2.14,1.13.87,2.13,1.93,2.99,3.17.86,1.24,1.55,2.67,2.07,4.3.52,1.62.78,3.46.78,5.52v16.18Z"/>
        <rect class="cls-4" x="105.06" y="118.66" width="11.92" height="11.92"/>
      </g>
      <g>
        <path class="cls-1" d="m171.06,172.59c0,1.13-.13,2.33-.39,3.59-.26,1.26-.67,2.51-1.22,3.75-.55,1.24-1.26,2.43-2.14,3.56-.87,1.13-1.93,2.14-3.17,3.01-1.24.87-2.67,1.57-4.3,2.09-1.62.52-3.46.78-5.52.78h-21.56c-1.13,0-2.33-.13-3.59-.39-1.26-.26-2.51-.67-3.75-1.22-1.24-.55-2.43-1.26-3.56-2.14-1.13-.87-2.14-1.93-3.01-3.17-.87-1.24-1.57-2.68-2.09-4.32-.52-1.64-.78-3.49-.78-5.54v-53.93h11.95v53.93c0,1.47.46,2.64,1.38,3.52.92.87,2.07,1.31,3.45,1.31h21.56c1.5,0,2.67-.44,3.52-1.33.84-.89,1.26-2.05,1.26-3.49v-16.18c0-1.5-.44-2.67-1.33-3.52-.89-.84-2.04-1.26-3.45-1.26h-21.56v-11.95h21.56c1.13,0,2.33.13,3.59.39,1.26.26,2.51.67,3.75,1.22,1.24.55,2.43,1.26,3.56,2.14,1.13.87,2.13,1.93,2.99,3.17.86,1.24,1.55,2.67,2.07,4.3.52,1.62.78,3.46.78,5.52v16.18Z"/>
        <rect class="cls-1" x="105.06" y="118.66" width="11.92" height="11.92"/>
      </g>
    </g>
  </g>
</svg>